<?xml version="1.0" encoding="UTF-8" standalone="no"?>
<!DOCTYPE svg PUBLIC "-//W3C//DTD SVG 1.1//EN" "http://www.w3.org/Graphics/SVG/1.1/DTD/svg11.dtd">
<!-- Created with Vectornator (http://vectornator.io/) -->
<svg height="100%" stroke-miterlimit="10" style="fill-rule:nonzero;clip-rule:evenodd;stroke-linecap:round;stroke-linejoin:round;" version="1.1" viewBox="0 0 1024 1024" width="100%" xml:space="preserve" xmlns="http://www.w3.org/2000/svg" xmlns:vectornator="http://vectornator.io" xmlns:xlink="http://www.w3.org/1999/xlink">
<defs/>
<g id="Layer-1" vectornator:layerName="Layer 1">
<path d="M624 6.59256e-14C624 6.59256e-14 617.145 77.4762 645.048 140C672.952 202.524 675.048 182 752.048 262C821.29 333.94 821.048 346 832.048 445C841.215 527.498 819.663 570.095 802.048 610C784.122 650.612 779.481 650.488 716.048 706C657.663 757.095 637.851 818.015 630.048 900C623.663 967.095 624 1024 624 1024L400 1024C400 1024 397.663 978.095 406.048 900C414.841 818.115 439.663 758.095 492.048 706C545.504 652.84 555.663 634.095 578.048 610C600.187 586.17 626.207 509.545 608.048 445C588.663 376.095 554.663 297.095 528.048 262C497.196 221.316 446.548 209.524 421.048 140C395.548 70.4762 400 0 400 0L624 6.59256e-14Z" fill="#a5a4a2" fill-rule="nonzero" opacity="1" stroke="none" vectornator:layerName="Curve 1"/>
</g>
</svg>
