<?xml version="1.0" encoding="UTF-8" standalone="no"?>
<!DOCTYPE svg PUBLIC "-//W3C//DTD SVG 1.1//EN" "http://www.w3.org/Graphics/SVG/1.1/DTD/svg11.dtd">
<!-- Created with Vectornator (http://vectornator.io/) -->
<svg height="100%" stroke-miterlimit="10" style="fill-rule:nonzero;clip-rule:evenodd;stroke-linecap:round;stroke-linejoin:round;" version="1.1" viewBox="0 0 1024 1024" width="100%" xml:space="preserve" xmlns="http://www.w3.org/2000/svg" xmlns:vectornator="http://vectornator.io" xmlns:xlink="http://www.w3.org/1999/xlink">
<defs/>
<g id="Layer-1" vectornator:layerName="Layer 1">
<path d="M1024 624C1024 624 947.349 622.169 884.932 650.312C822.516 678.455 843.048 680.473 763.343 757.779C691.669 827.296 679.608 827.1 580.651 838.48C498.189 847.962 455.509 826.574 415.537 809.112C374.857 791.341 374.963 786.7 319.209 723.48C267.89 665.291 206.895 645.713 124.881 638.224C57.7614 632.096 0 624 0 624L0 400C0 400 45.8956 406.14 124.022 414.226C205.941 422.705 266.055 447.297 318.35 499.482C371.715 552.734 390.498 562.821 414.679 585.114C438.594 607.161 515.318 632.887 579.793 614.481C648.623 594.832 727.492 560.53 762.485 533.781C803.05 502.772 814.649 452.08 884.074 426.314C953.5 400.548 1024 400 1024 400L1024 624Z" fill="#a5a4a2" fill-rule="nonzero" opacity="1" stroke="none" vectornator:layerName="Curve 1"/>
</g>
</svg>
