<?xml version="1.0" encoding="UTF-8" standalone="no"?>
<!DOCTYPE svg PUBLIC "-//W3C//DTD SVG 1.1//EN" "http://www.w3.org/Graphics/SVG/1.1/DTD/svg11.dtd">
<!-- Created with Vectornator (http://vectornator.io/) -->
<svg height="100%" stroke-miterlimit="10" style="fill-rule:nonzero;clip-rule:evenodd;stroke-linecap:round;stroke-linejoin:round;" version="1.1" viewBox="0 0 1024 1024" width="100%" xml:space="preserve" xmlns="http://www.w3.org/2000/svg" xmlns:vectornator="http://vectornator.io" xmlns:xlink="http://www.w3.org/1999/xlink">
<defs/>
<clipPath id="ArtboardFrame">
<rect height="1024" width="1024" x="0" y="0"/>
</clipPath>
<g clip-path="url(#ArtboardFrame)" id="Layer-1" vectornator:layerName="Layer 1">
<path d="M520.222 1024L764.196 363.125L275.246 383.002L520.222 1024Z" fill="#c9b09a" fill-rule="nonzero" opacity="1" stroke="#a5a4a2" stroke-linecap="butt" stroke-linejoin="round" stroke-width="10" vectornator:layerName="Polygon 1"/>
<path d="M364.391 393.485L394.569 427.908L439.835 446.218L479.198 452.81L514.624 441.091L538.242 426.443L568.42 396.414L598.597 415.457L623.527 435.232L672.73 435.964L732.43 435.964L777.697 413.992L801.314 377.372L786.225 320.976L767.2 279.961L740.958 264.58L710.124 260.186L757.359 274.834L767.2 262.383L756.047 224.298L750.799 170.832L725.213 124.69L668.794 58.0404L623.527 37.5329L572.356 8.9689L514.624 8.9689L452.956 21.4199L380.792 49.2515L322.404 114.436L273.201 201.593L265.329 276.299L265.985 285.82L281.074 285.088L246.959 295.342L234.495 318.779L222.686 370.047L246.959 427.176L294.194 442.556L320.436 441.824L355.862 418.387L364.391 393.485Z" fill="#ffffff" fill-rule="nonzero" opacity="1" stroke="#a5a4a2" stroke-linecap="butt" stroke-linejoin="round" stroke-width="10" vectornator:layerName="Curve 1"/>
<path d="M408.351 570.693L594.42 526.361" fill="none" opacity="1" stroke="#a5a4a2" stroke-linecap="butt" stroke-linejoin="round" stroke-width="10" vectornator:layerName="Line 1"/>
<path d="M437.698 637.19L623.766 594.42" fill="none" opacity="1" stroke="#a5a4a2" stroke-linecap="butt" stroke-linejoin="round" stroke-width="10" vectornator:layerName="Line 2"/>
<path d="M451.434 719.298L635.629 666.224" fill="none" opacity="1" stroke="#a5a4a2" stroke-linecap="butt" stroke-linejoin="round" stroke-width="10" vectornator:layerName="Line 3"/>
<path d="M496.39 750.517L429.58 521.99" fill="none" opacity="1" stroke="#a5a4a2" stroke-linecap="butt" stroke-linejoin="round" stroke-width="10" vectornator:layerName="Line 4"/>
<path d="M558.829 726.79L501.385 510.127" fill="none" opacity="1" stroke="#a5a4a2" stroke-linecap="butt" stroke-linejoin="round" stroke-width="10" vectornator:layerName="Line 5"/>
<path d="M620.02 713.678L565.698 498.263" fill="none" opacity="1" stroke="#a5a4a2" stroke-linecap="butt" stroke-linejoin="round" stroke-width="10" vectornator:layerName="Line 6"/>
<path d="M352.826 177.269C352.826 163.462 364.019 152.269 377.826 152.269C391.633 152.269 402.826 163.462 402.826 177.269C402.826 191.076 391.633 202.269 377.826 202.269C364.019 202.269 352.826 191.076 352.826 177.269Z" fill="#d01f2b" fill-rule="nonzero" opacity="1" stroke="none" vectornator:layerName="Oval 1"/>
<path d="M513.748 123.253C513.748 109.446 524.941 98.2535 538.748 98.2535C552.555 98.2535 563.748 109.446 563.748 123.253C563.748 137.061 552.555 148.253 538.748 148.253C524.941 148.253 513.748 137.061 513.748 123.253Z" fill="#d01f2b" fill-rule="nonzero" opacity="1" stroke="none" vectornator:layerName="Oval 3"/>
<path d="M611.651 329.188C611.651 315.381 622.844 304.188 636.651 304.188C650.458 304.188 661.651 315.381 661.651 329.188C661.651 342.995 650.458 354.188 636.651 354.188C622.844 354.188 611.651 342.995 611.651 329.188Z" fill="#d01f2b" fill-rule="nonzero" opacity="1" stroke="none" vectornator:layerName="Oval 4"/>
<path d="M427.098 302.18C427.098 288.373 438.291 277.18 452.098 277.18C465.905 277.18 477.098 288.373 477.098 302.18C477.098 315.987 465.905 327.18 452.098 327.18C438.291 327.18 427.098 315.987 427.098 302.18Z" fill="#33d01f" fill-rule="nonzero" opacity="1" stroke="none" vectornator:layerName="Oval 5"/>
<path d="M600.398 218.906C600.398 205.099 611.591 193.906 625.398 193.906C639.205 193.906 650.398 205.099 650.398 218.906C650.398 232.713 639.205 243.906 625.398 243.906C611.591 243.906 600.398 232.713 600.398 218.906Z" fill="#33d01f" fill-rule="nonzero" opacity="1" stroke="none" vectornator:layerName="Oval 6"/>
<path d="M421.471 96.2457C421.471 82.4386 432.664 71.2457 446.471 71.2457C460.278 71.2457 471.471 82.4386 471.471 96.2457C471.471 110.053 460.278 121.246 446.471 121.246C432.664 121.246 421.471 110.053 421.471 96.2457Z" fill="#33d01f" fill-rule="nonzero" opacity="1" stroke="none" vectornator:layerName="Oval 7"/>
<path d="M608.275 132.256C608.275 118.449 619.468 107.256 633.275 107.256C647.082 107.256 658.275 118.449 658.275 132.256C658.275 146.063 647.082 157.256 633.275 157.256C619.468 157.256 608.275 146.063 608.275 132.256Z" fill="#371fd0" fill-rule="nonzero" opacity="1" stroke="none" vectornator:layerName="Oval 8"/>
<path d="M468.735 214.405C468.735 200.598 479.928 189.405 493.735 189.405C507.542 189.405 518.735 200.598 518.735 214.405C518.735 228.212 507.542 239.405 493.735 239.405C479.928 239.405 468.735 228.212 468.735 214.405Z" fill="#371fd0" fill-rule="nonzero" opacity="1" stroke="none" vectornator:layerName="Oval 9"/>
<path d="M313.44 308.932C313.44 295.125 324.633 283.932 338.44 283.932C352.247 283.932 363.44 295.125 363.44 308.932C363.44 322.739 352.247 333.932 338.44 333.932C324.633 333.932 313.44 322.739 313.44 308.932Z" fill="#371fd0" fill-rule="nonzero" opacity="1" stroke="none" vectornator:layerName="Oval 10"/>
<path d="M961.627 287.308C961.627 284.822 962.383 282.807 963.315 282.807C964.247 282.807 965.003 284.822 965.003 287.308C965.003 289.794 964.247 291.809 963.315 291.809C962.383 291.809 961.627 289.794 961.627 287.308Z" fill="#d01f2b" fill-rule="nonzero" opacity="1" stroke="none" vectornator:layerName="Oval 2"/>
</g>
</svg>
