<?xml version="1.0" encoding="UTF-8" standalone="no"?>
<!DOCTYPE svg PUBLIC "-//W3C//DTD SVG 1.1//EN" "http://www.w3.org/Graphics/SVG/1.1/DTD/svg11.dtd">
<!-- Created with Vectornator (http://vectornator.io/) -->
<svg height="100%" stroke-miterlimit="10" style="fill-rule:nonzero;clip-rule:evenodd;stroke-linecap:round;stroke-linejoin:round;" version="1.1" viewBox="0 0 1024 1024" width="100%" xml:space="preserve" xmlns="http://www.w3.org/2000/svg" xmlns:vectornator="http://vectornator.io" xmlns:xlink="http://www.w3.org/1999/xlink">
<defs/>
<g id="Layer-1" vectornator:layerName="Layer 1">
<path d="M7.63833e-14 5.29689e-14L1024 5.29689e-14L1024 1024L7.63833e-14 1024L7.63833e-14 5.29689e-14Z" fill="#475508" fill-rule="nonzero" opacity="0.994322" stroke="none" vectornator:layerName="Rectangle 1"/>
<path d="M252.875 1024L244.398 897.536L198.624 763.604L103.685 644.93L31.6329 514.389L142.678 601.699L256.266 723.763L319.841 816.16L268.133 673.751L181.671 445.727L95.2082 281.279L352.052 685.618L313.907 549.991L241.855 396.563L161.327 226.181L241.855 310.1L313.06 417.754L376.635 524.561L407.999 638.996L386.807 483.025C386.807 483.025 363.072 373.675 350.357 369.437C337.642 365.199 285.086 273.65 285.086 273.65L357.986 316.881L429.19 433.86L458.011 561.858L477.508 495.74L498.699 360.113L524.13 243.134L585.162 110.05L570.751 230.419L549.56 416.907L539.388 544.905L574.99 461.833L598.725 338.073L659.757 240.591L723.332 210.075C723.332 210.075 688.578 353.331 680.949 367.742C673.32 382.152 617.373 538.971 617.373 538.971L665.691 482.177L743.676 390.629L813.185 331.292C813.185 331.292 793.689 483.873 785.212 492.349C776.735 500.826 717.399 638.149 709.77 655.102C702.14 672.056 663.995 790.729 652.976 807.683C641.956 824.636 769.954 651.711 769.954 651.711L827.596 588.984L921.687 510.15L852.178 670.36L801.318 739.869L723.332 842.437L834.377 773.776L953.051 740.717C953.051 740.717 875.065 820.398 865.741 829.722C856.417 839.047 769.954 901.774 769.954 901.774L975.09 859.391L750.458 983.151L640.261 1024L252.875 1024Z" fill="#478c46" fill-rule="nonzero" opacity="1" stroke="none" vectornator:layerName="Curve 1"/>
<path d="M678.406 902.699L848.788 791.654L792.336 853.519L707.226 926.434L678.406 902.699Z" fill="#61a39a" fill-rule="nonzero" opacity="1" stroke="none" vectornator:layerName="Curve 2"/>
<path d="M533.454 756.052L690.273 513.618L764.868 420.374L686.882 600.081L638.565 749.271L587.705 873.878L533.454 756.052Z" fill="#61a39a" fill-rule="nonzero" opacity="1" stroke="none" vectornator:layerName="Curve 3"/>
<path d="M361.377 852.686L253.629 576.845L404.608 808.608L361.377 852.686Z" fill="#61a39a" fill-rule="nonzero" opacity="1" stroke="none" vectornator:layerName="Curve 4"/>
</g>
</svg>
