<?xml version="1.0" encoding="UTF-8" standalone="no"?>
<!DOCTYPE svg PUBLIC "-//W3C//DTD SVG 1.1//EN" "http://www.w3.org/Graphics/SVG/1.1/DTD/svg11.dtd">
<!-- Created with Vectornator (http://vectornator.io/) -->
<svg height="100%" stroke-miterlimit="10" style="fill-rule:nonzero;clip-rule:evenodd;stroke-linecap:round;stroke-linejoin:round;" version="1.1" viewBox="0 0 1024 1024" width="100%" xml:space="preserve" xmlns="http://www.w3.org/2000/svg" xmlns:vectornator="http://vectornator.io" xmlns:xlink="http://www.w3.org/1999/xlink">
<defs/>
<g id="Layer-1" vectornator:layerName="Layer 1">
<path d="M1024 624L819.695 616.518L585.448 544.036L572.782 606.905L680.782 702.053L681.851 790.069L633.145 856.558L571.418 924.909L463.435 922.766L392.359 835.009L375.524 724.825L408.21 660.167L487.66 618.005L499.326 555.125L506.897 501.202L582.284 464.998C582.284 464.998 724.298 464.5 735.276 466.617C746.254 468.733 888.606 436.237 888.606 436.237L1024 400L1024 624Z" fill="#a5a2a2" fill-rule="nonzero" opacity="1" stroke="none" vectornator:layerName="Curve 1"/>
<path d="M593.036 772.129C604.081 772.246 613.129 763.387 613.246 752.341C613.363 741.296 604.504 732.248 593.459 732.131C582.414 732.014 573.365 740.873 573.248 751.918C573.131 762.963 581.99 772.012 593.036 772.129Z" fill="#150b14" fill-rule="nonzero" opacity="1" stroke="none" vectornator:layerName="Oval 2"/>
<path d="M453.054 769.648C464.099 769.764 473.148 760.905 473.264 749.86C473.381 738.815 464.522 729.767 453.477 729.65C442.432 729.533 433.384 738.392 433.267 749.437C433.15 760.482 442.009 769.531 453.054 769.648Z" fill="#150b14" fill-rule="nonzero" opacity="1" stroke="none" vectornator:layerName="Oval 1"/>
<path d="M545.726 895.635L471.73 894.852" fill="none" opacity="1" stroke="#150b14" stroke-linecap="butt" stroke-linejoin="round" stroke-width="10" vectornator:layerName="Line 1"/>
<path d="M522.738 894.392L521.135 951.378L540.531 1008.59L491.084 956.06L464.757 986.784L470.201 944.839L498.665 901.137" fill="#e50e19" fill-rule="nonzero" opacity="1" stroke="none" vectornator:layerName="Curve 2"/>
</g>
</svg>
