<?xml version="1.0" encoding="UTF-8" standalone="no"?>
<!DOCTYPE svg PUBLIC "-//W3C//DTD SVG 1.1//EN" "http://www.w3.org/Graphics/SVG/1.1/DTD/svg11.dtd">
<!-- Created with Vectornator (http://vectornator.io/) -->
<svg height="100%" stroke-miterlimit="10" style="fill-rule:nonzero;clip-rule:evenodd;stroke-linecap:round;stroke-linejoin:round;" version="1.1" viewBox="0 0 1024 1024" width="100%" xml:space="preserve" xmlns="http://www.w3.org/2000/svg" xmlns:vectornator="http://vectornator.io" xmlns:xlink="http://www.w3.org/1999/xlink">
<defs/>
<clipPath id="ArtboardFrame">
<rect height="1024" width="1024" x="0" y="0"/>
</clipPath>
<g clip-path="url(#ArtboardFrame)" id="Layer-1" vectornator:layerName="Layer 1">
<path d="M540.713 129.662L592.492 122.841L650.549 142.451L703.113 202.132L748.616 395.668L800.396 540.607L877.281 665.937L885.127 771.657L855.314 888.461L787.843 974.572L667.024 1014.64L491.287 1027.43L361.837 981.393L273.968 889.314L235.526 817.697L236.31 700.04L253.57 619.897L316.334 529.524L364.975 428.919L397.142 328.314L454.413 198.721L491.287 156.945L540.713 129.662Z" fill="#e8b407" fill-rule="nonzero" opacity="1" stroke="none" vectornator:layerName="Curve 1"/>
<path d="M827.071 729.028L800.396 634.391L756.462 555.954L721.942 508.209L712.527 578.973L749.401 669.347C749.401 669.347 768.23 732.439 774.506 751.195C780.783 769.952 779.998 850.095 779.998 850.095L783.136 899.545L822.363 827.075L826.286 774.215L827.071 729.028Z" fill="#a5a4a2" fill-rule="nonzero" opacity="1" stroke="none" vectornator:layerName="Curve 2"/>
<path d="M281.029 655.706L271.615 779.331L314.765 886.756L372.036 950.7L436.369 979.688L488.933 989.919L419.109 911.481L348.5 803.203L311.626 680.431L317.903 596.025L281.029 655.706Z" fill="#436557" fill-rule="nonzero" opacity="1" stroke="none" vectornator:layerName="Curve 3"/>
<path d="M524.63 174.849C524.63 155.543 551.149 139.893 583.863 139.893C616.576 139.893 643.095 155.543 643.095 174.849C643.095 194.154 616.576 209.805 583.863 209.805C551.149 209.805 524.63 194.154 524.63 174.849Z" fill="#402217" fill-rule="nonzero" opacity="1" stroke="none" vectornator:layerName="Oval 1"/>
<path d="M588.153-2.13163e-14L564.617 174.849L598.524 180.396L621.276 3.12258L588.153-2.13163e-14Z" fill="#9d521b" fill-rule="nonzero" opacity="1" stroke="none" vectornator:layerName="Curve 4"/>
</g>
</svg>
