<?xml version="1.0" encoding="UTF-8" standalone="no"?>
<!DOCTYPE svg PUBLIC "-//W3C//DTD SVG 1.1//EN" "http://www.w3.org/Graphics/SVG/1.1/DTD/svg11.dtd">
<!-- Created with Vectornator (http://vectornator.io/) -->
<svg height="100%" stroke-miterlimit="10" style="fill-rule:nonzero;clip-rule:evenodd;stroke-linecap:round;stroke-linejoin:round;" version="1.1" viewBox="0 0 1024 1024" width="100%" xml:space="preserve" xmlns="http://www.w3.org/2000/svg" xmlns:vectornator="http://vectornator.io" xmlns:xlink="http://www.w3.org/1999/xlink">
<defs/>
<clipPath id="ArtboardFrame">
<rect height="1024" width="1024" x="0" y="0"/>
</clipPath>
<g clip-path="url(#ArtboardFrame)" id="Layer-1" vectornator:layerName="Layer 1">
<path d="M465.022 395.297C465.022 300.582 522.822 223.8 594.123 223.8C665.424 223.8 723.224 300.582 723.224 395.297C723.224 490.012 665.424 566.794 594.123 566.794C522.822 566.794 465.022 490.012 465.022 395.297Z" fill="#2a79ce" fill-rule="nonzero" opacity="1" stroke="#144e8c" stroke-linecap="butt" stroke-linejoin="round" stroke-width="50" vectornator:layerName="Oval 3"/>
<path d="M638.099 204.942L702.493 235.897L673.594 109.587L751.809 209.212L776.31 91.7971L802.695 154.418L906.353-7.10543e-14L891.904 149.437L1024 162.709L919.112 275.082L989.392 379.07L849.623 313.726L846.427 436.247L779.67 281.671L673.594 398.499L706.89 265.456L631.817 231.983L638.099 204.942Z" fill="#6a884e" fill-rule="nonzero" opacity="1" stroke="none" vectornator:layerName="Curve 2"/>
<path d="M607.002 356.514C607.002 327.235 621.909 303.5 640.298 303.5C658.687 303.5 673.594 327.235 673.594 356.514C673.594 385.793 658.687 409.529 640.298 409.529C621.909 409.529 607.002 385.793 607.002 356.514Z" fill="#4799f1" fill-rule="nonzero" opacity="1" stroke="none" vectornator:layerName="Oval 2"/>
<path d="M654.433 109.587L619.252 194.268L525.018 208.5L518.735 248.35L599.777 229.137L508.055 414.866L506.171 441.907L525.018 451.158L594.751 305.99L576.532 453.293L601.662 483.18L615.483 320.222L617.367 278.238L623.022 261.159L696.524 405.615C696.524 405.615 712.858 417.712 716.628 408.461C720.397 399.211 642.497 244.081 642.497 244.081L650.664 212.058L671.395 160.111L675.165 135.917L654.433 109.587Z" fill="#400508" fill-rule="nonzero" opacity="1" stroke="none" vectornator:layerName="Curve 3"/>
<path d="M55.2393 375.482C88.7457 288.703 168.865 244.59 234.191 276.953C299.518 309.315 325.312 405.898 291.806 492.677C258.3 579.455 178.18 623.568 112.854 591.206C47.5278 558.843 21.7328 462.26 55.2393 375.482Z" fill="#2a79ce" fill-rule="nonzero" opacity="1" stroke="#144e8c" stroke-linecap="butt" stroke-linejoin="round" stroke-width="50" vectornator:layerName="Oval 4"/>
<path d="M189.256 380.017C199.729 353.248 221.847 338.389 238.66 346.828C255.472 355.267 260.611 383.808 250.139 410.577C239.666 437.345 217.548 452.204 200.736 443.765C183.923 435.327 178.784 406.785 189.256 380.017Z" fill="#4799f1" fill-rule="nonzero" opacity="1" stroke="none" vectornator:layerName="Oval 5"/>
<path d="M94.0515 852.503C94.0515 757.788 151.852 681.006 223.153 681.006C294.454 681.006 352.254 757.788 352.254 852.503C352.254 947.218 294.454 1024 223.153 1024C151.852 1024 94.0515 947.218 94.0515 852.503Z" fill="#2a79ce" fill-rule="nonzero" opacity="1" stroke="#144e8c" stroke-linecap="butt" stroke-linejoin="round" stroke-width="50" vectornator:layerName="Oval 6"/>
<path d="M236.032 813.721C236.032 784.441 250.939 760.706 269.328 760.706C287.717 760.706 302.624 784.441 302.624 813.721C302.624 843 287.717 866.735 269.328 866.735C250.939 866.735 236.032 843 236.032 813.721Z" fill="#4799f1" fill-rule="nonzero" opacity="1" stroke="none" vectornator:layerName="Oval 7"/>
<path d="M335.92 833.29C335.92 738.575 393.721 661.793 465.022 661.793C536.322 661.793 594.123 738.575 594.123 833.29C594.123 928.005 536.322 1004.79 465.022 1004.79C393.721 1004.79 335.92 928.005 335.92 833.29Z" fill="#2a79ce" fill-rule="nonzero" opacity="1" stroke="#144e8c" stroke-linecap="butt" stroke-linejoin="round" stroke-width="50" vectornator:layerName="Oval 8"/>
<path d="M477.9 794.507C477.9 765.228 492.807 741.493 511.196 741.493C529.585 741.493 544.493 765.228 544.493 794.507C544.493 823.786 529.585 847.522 511.196 847.522C492.807 847.522 477.9 823.786 477.9 794.507Z" fill="#4799f1" fill-rule="nonzero" opacity="1" stroke="none" vectornator:layerName="Oval 9"/>
<path d="M106.93 676.025C106.93 581.31 164.731 504.528 236.032 504.528C307.332 504.528 365.133 581.31 365.133 676.025C365.133 770.74 307.332 847.522 236.032 847.522C164.731 847.522 106.93 770.74 106.93 676.025Z" fill="#2a79ce" fill-rule="nonzero" opacity="1" stroke="#144e8c" stroke-linecap="butt" stroke-linejoin="round" stroke-width="50" vectornator:layerName="Oval 10"/>
<path d="M248.91 637.243C248.91 607.963 263.818 584.228 282.207 584.228C300.595 584.228 315.503 607.963 315.503 637.243C315.503 666.522 300.595 690.257 282.207 690.257C263.818 690.257 248.91 666.522 248.91 637.243Z" fill="#4799f1" fill-rule="nonzero" opacity="1" stroke="none" vectornator:layerName="Oval 11"/>
<path d="M498.318 741.493C498.318 646.778 556.118 569.996 627.419 569.996C698.72 569.996 756.52 646.778 756.52 741.493C756.52 836.208 698.72 912.99 627.419 912.99C556.118 912.99 498.318 836.208 498.318 741.493Z" fill="#2a79ce" fill-rule="nonzero" opacity="1" stroke="#144e8c" stroke-linecap="butt" stroke-linejoin="round" stroke-width="50" vectornator:layerName="Oval 12"/>
<path d="M640.298 702.71C640.298 673.431 655.205 649.696 673.594 649.696C691.983 649.696 706.89 673.431 706.89 702.71C706.89 731.989 691.983 755.725 673.594 755.725C655.205 755.725 640.298 731.989 640.298 702.71Z" fill="#4799f1" fill-rule="nonzero" opacity="1" stroke="none" vectornator:layerName="Oval 13"/>
<path d="M415.391 589.209C415.391 494.494 473.192 417.712 544.493 417.712C615.793 417.712 673.594 494.494 673.594 589.209C673.594 683.924 615.793 760.706 544.493 760.706C473.192 760.706 415.391 683.924 415.391 589.209Z" fill="#2a79ce" fill-rule="nonzero" opacity="1" stroke="#144e8c" stroke-linecap="butt" stroke-linejoin="round" stroke-width="50" vectornator:layerName="Oval 14"/>
<path d="M557.371 550.427C557.371 521.148 572.279 497.412 590.668 497.412C609.057 497.412 623.964 521.148 623.964 550.427C623.964 579.706 609.057 603.441 590.668 603.441C572.279 603.441 557.371 579.706 557.371 550.427Z" fill="#4799f1" fill-rule="nonzero" opacity="1" stroke="none" vectornator:layerName="Oval 15"/>
<path d="M594.123 569.996C594.123 475.281 651.924 398.499 723.224 398.499C794.525 398.499 852.326 475.281 852.326 569.996C852.326 664.711 794.525 741.493 723.224 741.493C651.924 741.493 594.123 664.711 594.123 569.996Z" fill="#2a79ce" fill-rule="nonzero" opacity="1" stroke="#144e8c" stroke-linecap="butt" stroke-linejoin="round" stroke-width="50" vectornator:layerName="Oval 16"/>
<path d="M736.103 531.213C736.103 501.934 751.01 478.199 769.399 478.199C787.788 478.199 802.695 501.934 802.695 531.213C802.695 560.492 787.788 584.228 769.399 584.228C751.01 584.228 736.103 560.492 736.103 531.213Z" fill="#4799f1" fill-rule="nonzero" opacity="1" stroke="none" vectornator:layerName="Oval 17"/>
<path d="M242.092 460.25C267.41 369.981 343.022 316.628 410.976 341.082C478.93 365.536 513.492 458.537 488.174 548.806C462.855 639.075 387.243 692.429 319.29 667.975C251.336 643.52 216.773 550.519 242.092 460.25Z" fill="#2a79ce" fill-rule="nonzero" opacity="1" stroke="#144e8c" stroke-linecap="butt" stroke-linejoin="round" stroke-width="50" vectornator:layerName="Oval 18"/>
<path d="M379.523 454.512C387.222 426.562 407.694 408.933 425.249 415.137C442.803 421.342 450.792 449.029 443.093 476.979C435.393 504.93 414.921 522.558 397.367 516.354C379.813 510.15 371.824 482.462 379.523 454.512Z" fill="#4799f1" fill-rule="nonzero" opacity="1" stroke="none" vectornator:layerName="Oval 19"/>
<path d="M313.445 115.796C388.453 73.9347 474.805 98.7299 506.318 171.177C537.83 243.624 502.57 336.289 427.562 378.15C352.554 420.011 266.203 395.216 234.69 322.769C203.178 250.321 238.438 157.656 313.445 115.796Z" fill="#2a79ce" fill-rule="nonzero" opacity="1" stroke="#144e8c" stroke-linecap="butt" stroke-linejoin="round" stroke-width="50" vectornator:layerName="Oval 20"/>
<path d="M379.172 190.602C401.925 176.707 427.444 180.306 436.171 198.641C444.898 216.975 433.528 243.102 410.775 256.997C388.023 270.892 362.504 267.294 353.777 248.959C345.05 230.625 356.42 204.497 379.172 190.602Z" fill="#4799f1" fill-rule="nonzero" opacity="1" stroke="none" vectornator:layerName="Oval 21"/>
</g>
</svg>
