<?xml version="1.0" encoding="UTF-8" standalone="no"?>
<!DOCTYPE svg PUBLIC "-//W3C//DTD SVG 1.1//EN" "http://www.w3.org/Graphics/SVG/1.1/DTD/svg11.dtd">
<!-- Created with Vectornator (http://vectornator.io/) -->
<svg height="100%" stroke-miterlimit="10" style="fill-rule:nonzero;clip-rule:evenodd;stroke-linecap:round;stroke-linejoin:round;" version="1.1" viewBox="0 0 1024 1024" width="100%" xml:space="preserve" xmlns="http://www.w3.org/2000/svg" xmlns:vectornator="http://vectornator.io" xmlns:xlink="http://www.w3.org/1999/xlink">
<defs/>
<clipPath id="ArtboardFrame">
<rect height="1024" width="1024" x="0" y="0"/>
</clipPath>
<g clip-path="url(#ArtboardFrame)" id="Layer-2" vectornator:layerName="Layer 2">
<path d="M119.526 945.756L343.515 1024L920.857 910.45L796.876 500.923L230.637 508.369L119.526 945.756Z" fill="#ffffff" fill-rule="nonzero" opacity="1" stroke="#a5a4a2" stroke-linecap="butt" stroke-linejoin="round" stroke-width="11.7726" vectornator:layerName="Curve 1"/>
<path d="M-164.215 406.478L-153.526 414.244L-157.609 426.81L-170.821 426.81L-174.904 414.244L-164.215 406.478Z" fill="none" opacity="1" stroke="#a5a4a2" stroke-linecap="butt" stroke-linejoin="round" stroke-width="10" vectornator:layerName="Polygon 1"/>
<path d="M1.13687e-13 273.677C1.13687e-13 122.529 229.23-1.13687e-13 512-1.13687e-13C794.77-1.13687e-13 1024 122.529 1024 273.677C1024 424.825 794.77 547.354 512 547.354C229.23 547.354 1.13687e-13 424.825 1.13687e-13 273.677Z" fill="#9d521b" fill-rule="nonzero" opacity="1" stroke="#a5a4a2" stroke-linecap="butt" stroke-linejoin="round" stroke-width="10" vectornator:layerName="Oval 1"/>
</g>
</svg>
