<?xml version="1.0" encoding="UTF-8" standalone="no"?>
<!DOCTYPE svg PUBLIC "-//W3C//DTD SVG 1.1//EN" "http://www.w3.org/Graphics/SVG/1.1/DTD/svg11.dtd">
<!-- Created with Vectornator (http://vectornator.io/) -->
<svg height="100%" stroke-miterlimit="10" style="fill-rule:nonzero;clip-rule:evenodd;stroke-linecap:round;stroke-linejoin:round;" version="1.1" viewBox="0 0 1024 1024" width="100%" xml:space="preserve" xmlns="http://www.w3.org/2000/svg" xmlns:vectornator="http://vectornator.io" xmlns:xlink="http://www.w3.org/1999/xlink">
<defs>
<filter color-interpolation-filters="sRGB" filterUnits="userSpaceOnUse" height="607.389" id="Filter" width="408.962" x="347.532" y="166.21">
<feGaussianBlur in="SourceGraphic" result="Blur" stdDeviation="0.987224"/>
</filter>
</defs>
<g id="Layer-1" vectornator:layerName="Layer 1">
<path d="M0 0L1024 0L1024 1024L0 1024L0 0Z" fill="#402217" fill-rule="nonzero" opacity="1" stroke="none" vectornator:layerName="Rectangle 1"/>
<path d="M100 200C100 144.772 144.772 100 200 100L824 100C879.228 100 924 144.772 924 200L924 824C924 879.228 879.228 924 824 924L200 924C144.772 924 100 879.228 100 824L100 200Z" fill="#a5a4a2" fill-rule="nonzero" opacity="1" stroke="none" vectornator:layerName="Rectangle 2"/>
<path d="M376.113 400.109C361.086 389.29 356.192 369.131 364.584 352.626L415.491 252.51C418.996 245.617 424.544 239.974 431.377 236.353L547.991 174.557C555.192 170.741 563.439 169.372 571.486 170.656L653.819 183.795C664.211 185.453 673.429 191.396 679.229 200.176L722.006 243.542L747.809 303.999C752.576 311.215 754.705 319.856 753.836 328.461L751.024 386.4C749.913 397.404 721.563 433.346 712.438 439.595L640.089 513.83C635.749 516.801 632.083 520.651 629.327 525.13L591.084 587.275C587.912 592.429 586.034 598.272 585.607 604.308L579.237 694.556C579.191 695.204 579.162 695.854 579.15 696.504L578.556 728.576C578.225 746.455 565.33 761.619 547.736 764.818L547.736 764.818C528.223 768.366 509.317 756.124 504.569 736.869L492.752 688.948C492.089 686.256 491.725 683.498 491.669 680.726L489.412 570.169C489.398 569.478 489.403 568.786 489.427 568.094L529.997 505.261C530.456 492.115 562.568 454.18 574.06 447.781L594.921 410.754C596.231 410.025 597.496 409.217 598.709 408.337L647.765 372.731C661.066 363.078 666.542 345.895 661.279 330.326L649.083 294.245C644.594 280.965 633.08 271.293 619.225 269.161L583.796 263.71C571.976 261.892 559.997 265.814 551.541 274.27L508.779 317.032C507.668 318.143 506.627 319.323 505.664 320.565L456.572 383.839C454.831 386.082 452.842 388.121 450.642 389.916L431.37 405.637C418.211 416.372 399.484 416.937 385.702 407.014L376.113 400.109Z" fill="#150b14" fill-rule="nonzero" filter="url(#Filter)" opacity="1" stroke="none" vectornator:blur="1.97445" vectornator:layerName="Curve 1"/>
<path d="M501.639 850.113C501.639 828.021 519.547 810.113 541.639 810.113C563.73 810.113 581.639 828.021 581.639 850.113C581.639 872.204 563.73 890.113 541.639 890.113C519.547 890.113 501.639 872.204 501.639 850.113Z" fill="#150b14" fill-rule="nonzero" opacity="1" stroke="none" vectornator:layerName="Oval 1"/>
</g>
</svg>
