<?xml version="1.0" encoding="UTF-8" standalone="no"?>
<!DOCTYPE svg PUBLIC "-//W3C//DTD SVG 1.1//EN" "http://www.w3.org/Graphics/SVG/1.1/DTD/svg11.dtd">
<!-- Created with Vectornator (http://vectornator.io/) -->
<svg height="100%" stroke-miterlimit="10" style="fill-rule:nonzero;clip-rule:evenodd;stroke-linecap:round;stroke-linejoin:round;" version="1.1" viewBox="0 0 1024 1024" width="100%" xml:space="preserve" xmlns="http://www.w3.org/2000/svg" xmlns:vectornator="http://vectornator.io" xmlns:xlink="http://www.w3.org/1999/xlink">
<defs>
<filter color-interpolation-filters="sRGB" filterUnits="userSpaceOnUse" height="101.221" id="Filter" width="104.705" x="726.599" y="721.471">
<feGaussianBlur in="SourceGraphic" result="Blur" stdDeviation="0.904912"/>
</filter>
</defs>
<clipPath id="ArtboardFrame">
<rect height="1024" width="1024" x="0" y="0"/>
</clipPath>
<g clip-path="url(#ArtboardFrame)" id="Layer-1" vectornator:layerName="Layer 1">
<path d="M182.684 627.5C182.684 478.759 250.922 358.181 335.099 358.181C419.275 358.181 487.513 478.759 487.513 627.5C487.513 776.241 419.275 896.819 335.099 896.819C250.922 896.819 182.684 776.241 182.684 627.5Z" fill="#436557" fill-rule="nonzero" opacity="1" stroke="none" vectornator:layerName="Oval 2"/>
<path d="M308.102 911.899L307.231 816.074L200.081 703.697L301.133 778.615L315.942 648.816L342.948 686.274L340.334 915.384" fill="#b1935d" fill-rule="nonzero" opacity="1" stroke="none" vectornator:layerName="Curve 7"/>
<path d="M719.946 465.676C719.946 214.91 767.641 11.6238 826.476 11.6238C885.312 11.6238 933.007 214.91 933.007 465.676C933.007 716.442 885.312 919.728 826.476 919.728C767.641 919.728 719.946 716.442 719.946 465.676Z" fill="#6a884e" fill-rule="nonzero" opacity="1" stroke="none" vectornator:layerName="Oval 3"/>
<path d="M828.171 820.43L728.862 723.733L829.043 781.228L828.171 820.43Z" fill="#b1935d" fill-rule="nonzero" filter="url(#Filter)" opacity="1" stroke="none" vectornator:blur="1.80982" vectornator:layerName="Curve 6"/>
<path d="M268.866 512C268.866 229.23 389.087 0 537.387 0C685.687 0 805.908 229.23 805.908 512C805.908 794.77 685.687 1024 537.387 1024C389.087 1024 268.866 794.77 268.866 512Z" fill="#829735" fill-rule="nonzero" opacity="1" stroke="none" vectornator:layerName="Oval 1"/>
<path d="M809.878 953.714L817.718 798.651L827.3 708.053L819.46 595.676L823.816 454.552L827.3 288.165L828.171 111.324L839.496 294.262L836.883 451.067L836.883 594.805L842.981 713.28L837.754 799.522L847.336 939.764L809.878 953.714Z" fill="#b1935d" fill-rule="nonzero" opacity="1" stroke="none" vectornator:layerName="Curve 1"/>
<path d="M514.562 1014.69L524.144 821.301L436.159 683.661L348.175 519.016L403.056 568.671L461.422 669.723L532.856 753.352L504.108 554.733L478.845 339.562L414.381 214.118L500.624 316.912L541.567 88.674L525.016 324.752L505.851 374.407L516.304 430.16L588.609 321.268L698.372 191.468L608.645 340.433L537.211 453.681L512.82 477.201L530.242 552.119L542.438 668.852L598.191 590.449L678.336 525.985L613.872 607.001L552.892 688.017L568.572 752.481L569.444 826.528L575.542 1015.56L541.567 1026.02L514.562 1014.69Z" fill="#b1935d" fill-rule="nonzero" opacity="1" stroke="none" vectornator:layerName="Curve 2"/>
<path d="M833.398 609.614L909.187 476.33L893.507 527.727L863.017 582.609L836.012 640.975L833.398 609.614Z" fill="#b1935d" fill-rule="nonzero" opacity="1" stroke="none" vectornator:layerName="Curve 3"/>
<path d="M834.269 265.515L863.017 208.02L836.012 288.165L834.269 265.515Z" fill="#b1935d" fill-rule="nonzero" opacity="1" stroke="none" vectornator:layerName="Curve 4"/>
<path d="M830.785 378.763L774.161 239.381L834.269 356.113L830.785 378.763Z" fill="#b1935d" fill-rule="nonzero" opacity="1" stroke="none" vectornator:layerName="Curve 5"/>
</g>
</svg>
