<?xml version="1.0" encoding="UTF-8" standalone="no"?>
<!DOCTYPE svg PUBLIC "-//W3C//DTD SVG 1.1//EN" "http://www.w3.org/Graphics/SVG/1.1/DTD/svg11.dtd">
<!-- Created with Vectornator (http://vectornator.io/) -->
<svg height="100%" stroke-miterlimit="10" style="fill-rule:nonzero;clip-rule:evenodd;stroke-linecap:round;stroke-linejoin:round;" version="1.1" viewBox="0 0 1024 1024" width="100%" xml:space="preserve" xmlns="http://www.w3.org/2000/svg" xmlns:vectornator="http://vectornator.io" xmlns:xlink="http://www.w3.org/1999/xlink">
<defs/>
<clipPath id="ArtboardFrame">
<rect height="1024" width="1024" x="0" y="0"/>
</clipPath>
<g clip-path="url(#ArtboardFrame)" id="Layer-1" vectornator:layerName="Layer 1">
<path d="M1670.72 6220.69L2034.11 5919.16L2266.05 5354.75L2358.83 4573.86L2420.68 4024.92L2351.1 3723.39L2150.08 3561.03L1941.33 3522.37L2119.15 3274.96L2327.91 3367.74L2498 3421.86L2644.9 3290.42L2876.85 3568.76L3224.77 3228.57L3479.91 3228.57L3611.35 3414.13L3263.43 3847.1L3278.89 4774.88L3472.18 5741.33L3959.27 6251.61L3054.67 6089.25L2961.89 6367.59L2528.93 6004.2L1670.72 6220.69Z" fill="#9d521b" fill-rule="nonzero" opacity="1" stroke="#6f3a1a" stroke-linecap="butt" stroke-linejoin="round" stroke-width="100" vectornator:layerName="Curve 4"/>
<path d="M587.825 497.551L567.605 446.037L505.501 522.68L384.181 561.629L336.519 582.989L294.635 564.142L272.97 542.783L209.422 569.168L160.316 551.578L102.544 506.346L114.099 483.73L80.8801 476.191L20.22 456.088L0 376.933L17.3315 327.931L54.8829 283.956L103.989 263.853L160.316 271.391L148.762 184.697L180.536 133.183L223.865 105.541L294.635 98.0025L314.855 42.719L375.515 6.28221L470.838 0L551.718 25.1288L623.932 113.08L681.704 77.8994L740.92 55.2834L818.911 89.2074L907.013 143.234L920.011 213.595L914.234 247.519L974.894 271.391L1024 336.726L1018.22 418.395L972.006 468.653L931.566 488.756L902.68 522.68L873.794 537.757L844.908 572.937L795.803 588.015L746.697 584.245L704.812 566.655L683.148 560.373L587.825 497.551Z" fill="#829735" fill-rule="nonzero" opacity="1" stroke="none" vectornator:layerName="Curve 5"/>
<path d="M306.189 1000.13L374.071 951.126L417.399 859.406L434.731 732.506L446.285 643.298L433.286 594.297L395.735 567.912L356.739 561.629L389.958 521.423L428.953 536.501L460.728 545.296L488.169 523.936L531.498 569.168L596.491 513.885L644.152 513.885L668.705 544.039L603.712 614.4L606.601 765.173L642.708 922.228L733.698 1005.15L564.717 978.768L547.385 1024L466.505 964.947L306.189 1000.13Z" fill="#9d521b" fill-rule="nonzero" opacity="1" stroke="none" vectornator:layerName="Curve 6"/>
</g>
</svg>
