<?xml version="1.0" encoding="UTF-8" standalone="no"?>
<!DOCTYPE svg PUBLIC "-//W3C//DTD SVG 1.1//EN" "http://www.w3.org/Graphics/SVG/1.1/DTD/svg11.dtd">
<!-- Created with Vectornator (http://vectornator.io/) -->
<svg height="100%" stroke-miterlimit="10" style="fill-rule:nonzero;clip-rule:evenodd;stroke-linecap:round;stroke-linejoin:round;" version="1.1" viewBox="0 0 406 422" width="100%" xml:space="preserve" xmlns="http://www.w3.org/2000/svg" xmlns:vectornator="http://vectornator.io" xmlns:xlink="http://www.w3.org/1999/xlink">
<defs>
<filter color-interpolation-filters="sRGB" filterUnits="userSpaceOnUse" height="111.541" id="Filter" width="133.736" x="210.485" y="254.022">
<feGaussianBlur in="SourceGraphic" result="Blur" stdDeviation="0.852797"/>
</filter>
<filter color-interpolation-filters="sRGB" filterUnits="userSpaceOnUse" height="36.7347" id="Filter_2" width="48.6543" x="29.6354" y="304.166">
<feGaussianBlur in="SourceGraphic" result="Blur" stdDeviation="0.852797"/>
</filter>
<filter color-interpolation-filters="sRGB" filterUnits="userSpaceOnUse" height="44.6796" id="Filter_3" width="16.3191" x="320.982" y="207.92">
<feGaussianBlur in="SourceGraphic" result="Blur" stdDeviation="0.852797"/>
</filter>
<filter color-interpolation-filters="sRGB" filterUnits="userSpaceOnUse" height="71.2605" id="Filter_4" width="87.2903" x="82.2461" y="344.446">
<feGaussianBlur in="SourceGraphic" result="Blur" stdDeviation="0.852797"/>
</filter>
<filter color-interpolation-filters="sRGB" filterUnits="userSpaceOnUse" height="21.6624" id="Filter_5" width="45.0906" x="31.6228" y="312.73">
<feGaussianBlur in="SourceGraphic" result="Blur" stdDeviation="0.852797"/>
</filter>
<filter color-interpolation-filters="sRGB" filterUnits="userSpaceOnUse" height="51.1204" id="Filter_6" width="59.7519" x="151.298" y="314.031">
<feGaussianBlur in="SourceGraphic" result="Blur" stdDeviation="0.852797"/>
</filter>
<filter color-interpolation-filters="sRGB" filterUnits="userSpaceOnUse" height="55.7771" id="Filter_7" width="56.5992" x="91.6319" y="349.722">
<feGaussianBlur in="SourceGraphic" result="Blur" stdDeviation="0.852797"/>
</filter>
<filter color-interpolation-filters="sRGB" filterUnits="userSpaceOnUse" height="22.0734" id="Filter_8" width="64.4086" x="268.371" y="302.043">
<feGaussianBlur in="SourceGraphic" result="Blur" stdDeviation="0.852797"/>
</filter>
<filter color-interpolation-filters="sRGB" filterUnits="userSpaceOnUse" height="86.6037" id="Filter_9" width="57.8322" x="226.036" y="282.314">
<feGaussianBlur in="SourceGraphic" result="Blur" stdDeviation="0.852797"/>
</filter>
<filter color-interpolation-filters="sRGB" filterUnits="userSpaceOnUse" height="50.8449" id="Filter_10" width="27.0056" x="310.706" y="50.0874">
<feGaussianBlur in="SourceGraphic" result="Blur" stdDeviation="0.852797"/>
</filter>
<filter color-interpolation-filters="sRGB" filterUnits="userSpaceOnUse" height="21.6624" id="Filter_11" width="84.5486" x="229.735" y="98.5879">
<feGaussianBlur in="SourceGraphic" result="Blur" stdDeviation="0.852797"/>
</filter>
<filter color-interpolation-filters="sRGB" filterUnits="userSpaceOnUse" height="99.7564" id="Filter_12" width="31.5269" x="115.06" y="188.191">
<feGaussianBlur in="SourceGraphic" result="Blur" stdDeviation="0.852797"/>
</filter>
<filter color-interpolation-filters="sRGB" filterUnits="userSpaceOnUse" height="142.503" id="Filter_13" width="38.9253" x="144.243" y="82.9691">
<feGaussianBlur in="SourceGraphic" result="Blur" stdDeviation="0.852797"/>
</filter>
<filter color-interpolation-filters="sRGB" filterUnits="userSpaceOnUse" height="57.0102" id="Filter_14" width="68.9298" x="121.225" y="11.4514">
<feGaussianBlur in="SourceGraphic" result="Blur" stdDeviation="0.852797"/>
</filter>
<filter color-interpolation-filters="sRGB" filterUnits="userSpaceOnUse" height="27.8277" id="Filter_15" width="75.9172" x="25.4575" y="151.61">
<feGaussianBlur in="SourceGraphic" result="Blur" stdDeviation="0.852797"/>
</filter>
</defs>
<clipPath id="ArtboardFrame">
<rect height="422" width="406" x="0" y="0"/>
</clipPath>
<g clip-path="url(#ArtboardFrame)" id="Layer-2" vectornator:layerName="Layer 2">
<path d="M10.8053 146L25.6021 115.995L39.5768 91.3341L59.7169 62.1516L86.4332 35.4352L113.561 20.2275L137.811 13.2401L171.926 8.30784L221.248 5.84171L256.185 4.19763L294.41 23.1046L331.402 45.7108L362.64 67.0839L380.313 109.419L388.945 152.165L402.098 192.034L398.398 233.548L376.614 270.128L349.898 295.201L341.266 298.9L212.617 326.438L203.574 326.849L164.527 326.438L104.929 313.697L43.276 277.938L14.9155 232.314L4.64001 191.212L10.8053 146Z" fill="#606060" fill-rule="nonzero" opacity="0.993109" stroke="none" vectornator:layerName="Curve 1"/>
<path d="M274.27 363.43L314.139 362.197L337.567 351.511L342.088 316.985L328.936 275.061L291.533 256.154L258.651 262.73L221.659 280.815L212.617 307.942L217.96 338.769L239.744 354.799L274.27 363.43Z" fill="#a5a2a2" fill-rule="nonzero" filter="url(#Filter)" opacity="0.993109" stroke="none" vectornator:blur="1.70559" vectornator:layerName="Curve 3"/>
<path d="M41.6319 338.769L58.8948 335.07L69.1703 332.193L76.1577 321.506L59.7169 306.298L39.9878 316.985L31.7674 328.082L41.6319 338.769Z" fill="#a5a2a2" fill-rule="nonzero" filter="url(#Filter_2)" opacity="0.993109" stroke="none" vectornator:blur="1.70559" vectornator:layerName="Curve 4"/>
<g filter="url(#Filter_3)" opacity="0.993109" vectornator:blur="1.70559" vectornator:layerName="Curve 12">
<path d="M328.094 214.875C327.99 214.882 327.931 214.959 327.938 215.062C328.081 216.327 328.173 217.624 327.938 218.875C327.547 220.946 326.495 222.747 325.906 224.75C325.352 226.634 325.256 228.555 325.438 230.5C325.622 232.477 326.124 234.325 326.969 236.125C327.557 237.38 328.324 238.541 328.875 239.812C329.671 241.65 329.932 243.499 330.156 245.469C330.113 243.487 330.146 241.616 330.688 239.688C331.062 238.353 331.679 237.104 332.094 235.781C332.689 233.884 332.926 231.984 332.844 230C332.762 228.049 332.396 226.167 331.594 224.375C330.741 222.47 329.478 220.812 328.812 218.812C328.411 217.605 328.34 216.304 328.312 215.031C328.306 214.928 328.197 214.868 328.094 214.875Z" fill="#150b14" stroke="none"/>
</g>
<path d="M84.3781 396.723L129.59 413.575L151.375 410.287L166.993 403.299L167.404 379.46L146.442 353.977L116.438 346.578L87.2553 362.197L84.3781 396.723Z" fill="#a5a2a2" fill-rule="nonzero" filter="url(#Filter_4)" opacity="0.993109" stroke="none" vectornator:blur="1.70559" vectornator:layerName="Curve 5"/>
<g filter="url(#Filter_5)" opacity="0.993109" vectornator:blur="1.70559" vectornator:layerName="Curve 11">
<path d="M38.875 319.719C38.7949 319.653 38.6906 319.67 38.625 319.75C38.5594 319.83 38.5449 319.934 38.625 320C39.0309 320.273 39.4668 320.501 39.8438 320.812C41.3984 322.097 42.5175 323.893 43.4375 325.656C44.1532 327.028 44.8002 329.012 46.25 329.875C47.7767 330.784 50.692 330.534 52.375 330.312C53.7135 330.136 55.0564 329.848 56.3438 329.438C58.1554 328.859 59.7761 327.905 61.4375 327C64.1398 325.529 66.5539 324.795 69.5938 324.375C67.7061 324.534 65.8485 324.622 63.9688 324.312C61.979 323.985 60.1083 323.188 58.125 322.844C57.3735 322.713 56.0533 322.628 55.2812 322.625C54.4156 322.622 53.4526 322.677 52.5938 322.781C51.7512 322.883 50.7315 323.05 49.9062 323.25C49.2708 323.404 48.5819 323.46 48.0312 323.812C47.9908 323.838 48.4273 323.934 48.4375 323.938C48.5944 323.987 49.1368 324.202 49.125 324.438C49.1238 324.461 49.0856 324.443 49.0625 324.438C48.851 324.387 48.6123 324.263 48.4062 324.188C47.9122 324.007 47.4116 323.864 46.9062 323.719C46.3936 323.571 45.8875 323.461 45.375 323.312C44.8702 323.166 44.3382 323.022 43.8438 322.844C43.3654 322.672 42.8964 322.5 42.4375 322.281C41.0383 321.614 39.9689 320.801 38.875 319.719Z" fill="#150b14" stroke="none"/>
</g>
<path d="M159.184 329.315L173.981 316.163L187.544 317.396L202.341 326.438L208.918 351.511L192.477 363.019L171.104 358.498L153.43 346.989L159.184 329.315Z" fill="#a5a2a2" fill-rule="nonzero" filter="url(#Filter_6)" opacity="0.993109" stroke="none" vectornator:blur="1.70559" vectornator:layerName="Curve 6"/>
<g filter="url(#Filter_7)" opacity="0.993109" vectornator:blur="1.70559" vectornator:layerName="Curve 10">
<path d="M98.8125 356.688C98.7138 356.656 98.6251 356.714 98.5938 356.812C98.5625 356.911 98.62 357 98.7188 357.031C100.548 357.344 102.254 358.02 103.969 358.719C106.398 359.708 108.721 360.899 110.969 362.25C111.941 362.834 112.917 363.423 113.875 364.031C113.94 364.072 114.043 364.082 114.062 364.156C114.128 364.407 114.045 364.691 114.125 364.938C114.412 365.826 114.909 366.643 115.344 367.469C115.99 368.696 116.699 369.888 117.438 371.062C119.153 373.789 121.052 376.415 123.094 378.906C124.569 380.707 126.156 382.428 127.844 384.031C129.894 385.978 132.076 387.767 134.062 389.781C136.671 392.425 138.922 395.37 141.094 398.375C138.995 395.319 137.018 392.19 135.406 388.844C133.772 385.452 132.542 381.895 130.844 378.531C128.972 374.823 126.677 371.32 124.188 368C122.514 365.768 120.711 363.671 118.719 361.719C118.211 361.221 117.802 360.575 117.188 360.219C116.611 359.885 115.903 359.848 115.25 359.719C114.507 359.572 113.725 359.583 112.969 359.531C112.333 359.488 111.354 359.431 110.719 359.375C108.118 359.146 105.564 358.695 103.031 358.062C101.58 357.7 100.165 357.332 98.8125 356.688Z" fill="#150b14" stroke="none"/>
</g>
<g filter="url(#Filter_8)" opacity="0.943783" vectornator:blur="1.70559" vectornator:layerName="Curve 7">
<path d="M275.562 309C275.464 308.967 275.345 309.027 275.312 309.125C275.28 309.223 275.339 309.311 275.438 309.344C276.857 309.575 278.152 310.114 279.469 310.688C281.448 311.549 283.306 312.571 285.094 313.781C286.307 314.603 287.491 315.481 288.719 316.281C289.426 316.742 290.224 317.278 291.031 317.531C291.536 317.69 292.072 317.694 292.594 317.781C297.044 318.523 301.674 318.656 306.156 318.125C307.269 317.993 308.342 317.745 309.438 317.531C311.754 317.079 314.178 316.792 316.531 316.625C319.587 316.408 322.62 316.655 325.656 317C322.632 316.568 319.621 316.012 316.719 315.031C314.377 314.24 312.186 312.992 309.812 312.312C307.591 311.676 305.204 311.381 302.906 311.188C300.28 310.966 297.631 310.88 295 311.062C294.243 311.115 293.496 311.14 292.75 311.281C292.511 311.326 292.271 311.462 292.031 311.5C291.471 311.589 290.91 311.444 290.344 311.406C289.656 311.361 288.845 311.339 288.156 311.312C285.976 311.229 283.811 311.158 281.656 310.781C279.595 310.421 277.422 309.973 275.562 309Z" fill="#150b14" stroke="none"/>
</g>
<g filter="url(#Filter_9)" opacity="0.939572" vectornator:blur="1.70559" vectornator:layerName="Curve 8">
<path d="M233.281 289.281C233.194 289.225 233.056 289.257 233 289.344C232.943 289.431 232.976 289.537 233.062 289.594C235.399 290.84 237.569 292.365 239.719 293.906C242.59 295.964 245.349 298.139 248.031 300.438C251.066 303.037 253.97 305.773 257.031 308.344C259.059 310.046 261.173 311.66 263.312 313.219C264.023 313.737 264.7 314.27 265.438 314.75C265.579 314.842 265.798 314.871 265.906 315C266.167 315.312 266.281 315.689 266.5 316.031C266.825 316.54 267.193 317.032 267.531 317.531C268.547 319.029 269.573 320.528 270.625 322C271.327 322.982 271.946 324.037 272.75 324.938C272.912 325.119 273.265 325.126 273.375 325.344C273.447 325.485 273.201 325.623 273.188 325.781C273.139 326.339 273.192 326.909 273.188 327.469C273.183 328.029 273.185 328.596 273.188 329.156C273.2 332.533 273.378 335.881 273.594 339.25C273.774 342.06 273.972 344.872 274.062 347.688C274.081 348.248 274.073 348.814 274.094 349.375C274.112 349.871 274.356 350.409 274.188 350.875C273.997 351.401 273.454 351.728 273.094 352.156C272.14 353.29 271.665 353.855 270.688 354.969C268.649 357.292 266.531 359.538 264.406 361.781C266.996 359.127 269.588 356.487 272.312 353.969C272.767 353.549 273.232 353.138 273.688 352.719C274.187 352.259 274.855 351.935 275.188 351.344C275.495 350.797 275.42 350.118 275.531 349.5C276.627 343.406 278.206 337.385 279.25 331.281C279.529 329.648 279.911 327.966 280.031 326.312C280.101 325.35 280.358 324.373 280.125 323.438C279.887 322.484 279.16 321.718 278.656 320.875C277.731 319.325 276.668 317.806 275.656 316.312C274.642 314.815 273.627 313.338 272.562 311.875C272.091 311.227 271.697 310.5 271.125 309.938C270.617 309.439 269.971 309.107 269.375 308.719C268.638 308.239 267.855 307.816 267.094 307.375C264.033 305.603 260.924 303.995 257.719 302.5C254.499 300.999 251.223 299.591 248.031 298.031C244.862 296.482 241.773 294.755 238.75 292.938C236.856 291.798 235.023 290.645 233.281 289.281Z" fill="#150b14" stroke="none"/>
</g>
<g opacity="1" vectornator:layerName="Curve 1">
<path d="M174.688 333.312C174.472 333.352 174.249 333.509 174.062 333.625C173.73 333.833 173.396 334.043 173.062 334.25C172.73 334.457 172.403 334.683 172.062 334.875C170.437 335.792 168.832 336.299 166.969 336.125C166.865 336.13 166.807 336.209 166.812 336.312C166.818 336.416 166.897 336.505 167 336.5C167.34 336.434 167.686 336.304 168.031 336.281C169.861 336.162 171.654 336.936 173.25 337.719C173.603 337.892 173.96 338.076 174.312 338.25C174.44 338.313 174.701 338.365 174.781 338.469C174.821 338.52 174.459 338.562 174.438 338.562C174.102 338.577 173.763 338.467 173.469 338.312C173.331 338.24 173.186 338.157 173.062 338.062C173.035 338.041 172.973 337.997 172.969 338.031C172.949 338.192 173.051 338.434 173.094 338.594C173.22 338.969 173.323 339.35 173.469 339.719C174.033 341.145 174.901 342.502 175.906 343.656C176.714 344.583 177.651 345.343 178.688 346C179.777 346.69 180.938 347.247 181.969 348.031C183.246 349.002 184.197 350.187 185.094 351.5C184.294 350.126 183.578 348.758 183.25 347.188C182.985 345.92 182.999 344.655 182.844 343.375C182.648 341.762 182.176 340.243 181.406 338.812C180.859 337.797 180.194 336.814 179.406 335.969C178.92 335.447 178.549 335.216 178.094 334.781C177.135 333.867 176.116 333.051 174.688 333.312Z" fill="#150b14" stroke="none"/>
</g>
<g opacity="1" vectornator:layerName="Curve 9">
<path d="M303.719 509.781C302.296 509.553 300.431 510.969 299.5 511.688C299.26 511.873 299.015 512.057 298.781 512.25C298.531 512.458 298.308 512.693 298.062 512.906C297.395 513.485 297.124 513.705 296.469 514.312C295.954 514.79 295.222 515.454 294.719 515.938C294.206 516.431 293.379 517.255 292.875 517.75C292.214 518.399 291.565 519.068 290.906 519.719C289.846 520.766 288.772 521.79 287.719 522.844C283.872 526.69 280.117 530.627 276.531 534.719C272.738 539.048 269.095 543.529 265.25 547.812C263.815 549.412 262.352 550.969 260.812 552.469C259.838 553.419 258.85 554.344 257.781 555.188C256.711 556.032 255.553 556.851 254.219 557.188C254.077 557.223 253.936 557.272 253.781 557.25C252.839 557.116 252.035 555.158 251.75 554.438C250.472 551.2 250.01 547.602 249.719 544.156C249.455 541.036 249.397 537.879 249.5 534.75C249.69 528.98 250.401 523.267 251.25 517.562C250.131 524.529 249.035 531.516 248.031 538.5C247.495 542.23 246.96 545.98 246.812 549.75C246.628 554.467 246.977 561.471 252.469 563.125C252.995 563.284 253.575 563.38 254.125 563.406C255.02 563.448 255.912 563.337 256.781 563.125C257.829 562.869 258.823 562.458 259.781 561.969C261.551 561.064 263.16 559.889 264.688 558.625C268.444 555.516 271.729 551.825 274.812 548.062C278.675 543.35 282.202 538.349 285.438 533.188C287.922 529.223 290.245 525.151 292.781 521.219C293.512 520.086 294.247 518.971 295.031 517.875C295.494 517.229 296.011 516.565 296.5 515.938C296.979 515.322 297.399 514.777 297.906 514.188C298.392 513.623 298.731 513.277 299.25 512.75C300.58 511.401 303.949 508.17 305.156 511.438C305.316 511.869 305.402 512.327 305.469 512.781C305.556 513.381 305.616 513.988 305.625 514.594C305.615 514.269 305.642 513.948 305.625 513.625C305.59 512.981 305.538 512.313 305.375 511.688C305.28 511.322 305.138 510.979 304.938 510.656C304.611 510.13 304.193 509.857 303.719 509.781ZM305.625 514.594C305.64 515.584 305.457 516.585 305.312 517.562C305.304 517.666 305.397 517.742 305.5 517.75C305.603 517.758 305.679 517.666 305.688 517.562C305.698 516.571 305.656 515.589 305.625 514.594Z" fill="#150b14" stroke="none"/>
</g>
<g filter="url(#Filter_10)" opacity="0.993109" vectornator:blur="1.70559" vectornator:layerName="Curve 13">
<path d="M330.594 57.0312C330.49 57.0263 330.411 57.1153 330.406 57.2188C330.845 61.4999 328.784 65.1089 327.344 68.9688C326.955 70.0104 326.654 71.0656 326.438 72.1562C326.367 72.5121 326.29 72.8582 326.25 73.2188C326.247 73.2441 326.328 73.261 326.312 73.2812C326.182 73.4525 326 73.5746 325.875 73.75C324.795 75.2716 323.917 77.0565 323.219 78.7812C322.097 81.553 321.758 84.5055 320.875 87.3438C320.16 89.6423 319.06 91.7471 317.844 93.8125C319.144 91.7992 320.516 89.8575 322.25 88.1875C323.686 86.8038 325.328 85.6717 326.812 84.3438C328.607 82.7388 330.099 80.859 331.406 78.8438C331.664 78.447 331.923 78.0362 332.156 77.625C332.52 76.984 333.009 76.3942 333.219 75.6875C333.419 75.0111 333.357 74.2678 333.375 73.5625C333.422 71.743 332.9 69.8468 332.375 68.125C331.299 64.5991 330.036 60.9467 330.781 57.2188C330.786 57.1153 330.697 57.0362 330.594 57.0312Z" fill="#150b14" stroke="none"/>
</g>
<g filter="url(#Filter_11)" opacity="0.993109" vectornator:blur="1.70559" vectornator:layerName="Curve 14">
<path d="M258 105.25C255.377 105.45 252.779 105.83 250.156 106.031C247.563 106.231 244.973 106.239 242.375 106.125C240.524 106.044 238.684 105.947 236.875 105.531C236.772 105.52 236.698 105.585 236.688 105.688C236.677 105.79 236.741 105.895 236.844 105.906C238.699 105.876 240.516 106.163 242.344 106.469C244.909 106.898 247.442 107.452 249.938 108.188C252.46 108.931 254.945 109.82 257.469 110.562C261.024 111.608 264.67 112.296 268.344 112.75C272.732 113.292 277.138 113.62 281.562 113.531C285.68 113.448 289.765 112.826 293.875 112.625C298.316 112.408 302.736 112.706 307.156 113.125C302.746 112.615 298.361 111.95 294.062 110.812C290.085 109.76 286.229 108.345 282.219 107.406C277.554 106.315 272.773 105.679 268 105.312C264.677 105.058 261.324 104.996 258 105.25Z" fill="#150b14" stroke="none"/>
</g>
<g filter="url(#Filter_12)" opacity="0.993109" vectornator:blur="1.70559" vectornator:layerName="Curve 15">
<path d="M122.156 195.156C122.056 195.183 121.973 195.275 122 195.375C122.841 197.628 123.372 199.963 123.875 202.312C124.378 204.662 124.795 207.026 125.125 209.406C125.291 210.604 125.422 211.799 125.562 213C125.616 213.459 125.644 213.926 125.75 214.375C125.86 214.841 126.064 215.265 126.219 215.719C126.63 216.921 127.022 218.143 127.438 219.344C128.402 222.13 129.422 224.87 130.625 227.562C131.137 228.708 131.671 229.84 132.219 230.969C132.401 231.345 132.578 231.729 132.781 232.094C132.844 232.207 133.009 232.279 133.031 232.406C133.08 232.683 132.965 232.969 132.969 233.25C132.976 233.765 133.034 234.267 133.062 234.781C133.12 235.809 133.176 236.848 133.25 237.875C133.51 241.474 133.886 245.058 134.438 248.625C135.312 254.279 136.806 259.803 137.781 265.438C138.662 270.526 139.126 275.664 139.469 280.812C139.211 275.66 139.061 270.5 139.344 265.344C139.572 261.186 140.108 257.055 140.438 252.906C140.683 249.813 140.791 246.728 140.781 243.625C140.772 240.537 140.655 237.426 140.469 234.344C140.438 233.83 140.388 233.325 140.344 232.812C140.279 232.065 140.327 231.285 140.125 230.562C139.934 229.88 139.516 229.284 139.188 228.656C138.609 227.551 137.936 226.499 137.281 225.438C135.512 222.569 133.568 219.809 131.531 217.125C130.764 216.114 130.012 215.115 129.219 214.125C128.988 213.837 128.7 213.591 128.5 213.281C128.094 212.651 127.891 211.907 127.594 211.219C126.956 209.742 126.347 208.255 125.781 206.75C124.389 203.046 123.022 199.192 122.375 195.281C122.348 195.181 122.256 195.13 122.156 195.156Z" fill="#150b14" stroke="none"/>
</g>
<g filter="url(#Filter_13)" opacity="0.993109" vectornator:blur="1.70559" vectornator:layerName="Curve 16">
<path d="M151.312 89.9375C151.214 89.9693 151.156 90.0577 151.188 90.1562C153.54 96.1243 155.196 102.438 156.75 108.656C157.319 110.935 157.829 113.209 158.344 115.5C158.485 116.131 158.558 116.799 158.781 117.406C158.979 117.943 159.353 118.403 159.625 118.906C160.34 120.231 161.038 121.548 161.75 122.875C163.645 126.407 165.553 129.925 167.594 133.375C168.354 134.661 169.111 135.974 169.938 137.219C170.059 137.402 170.283 137.539 170.344 137.75C170.372 137.85 170.166 137.896 170.156 138C170.115 138.414 170.175 138.834 170.188 139.25C170.224 140.498 170.259 141.752 170.312 143C170.491 147.157 170.758 151.319 171.062 155.469C171.428 160.452 171.896 165.415 172.5 170.375C172.7 172.021 172.809 173.716 173.125 175.344C173.171 175.58 173.345 175.791 173.344 176.031C173.342 176.329 173.193 176.617 173.125 176.906C172.894 177.883 172.721 178.615 172.5 179.594C171.888 182.302 171.293 185.04 170.688 187.75C168.371 198.117 165.366 208.253 162.062 218.344C165.175 209.171 168.463 200.085 172.375 191.219C173.869 187.832 175.424 184.472 176.938 181.094C177.316 180.25 177.716 179.42 178.062 178.562C178.297 177.983 178.596 177.394 178.719 176.781C178.837 176.193 178.768 175.6 178.781 175C178.79 174.583 178.807 174.167 178.812 173.75C178.833 172.082 178.824 170.418 178.812 168.75C178.771 162.921 178.519 157.1 178.188 151.281C177.975 147.542 177.713 143.792 177.375 140.062C177.3 139.233 177.233 138.388 177.125 137.562C177.027 136.815 177.086 136.046 176.812 135.344C176.53 134.619 175.947 134.043 175.5 133.406C174.643 132.184 173.677 131.013 172.75 129.844C170.259 126.703 167.682 123.659 165.062 120.625C164.079 119.486 163.092 118.313 162.094 117.188C161.806 116.864 161.45 116.616 161.219 116.25C160.622 115.307 160.313 114.214 159.875 113.188C158.953 111.03 158.071 108.842 157.219 106.656C155.1 101.221 153.004 95.6883 151.562 90.0312C151.531 89.9327 151.411 89.9057 151.312 89.9375Z" fill="#150b14" stroke="none"/>
</g>
<g filter="url(#Filter_14)" opacity="0.993109" vectornator:blur="1.70559" vectornator:layerName="Curve 17">
<path d="M128.25 18.4375C128.169 18.502 128.154 18.6065 128.219 18.6875C132.744 23.483 135.61 29.3826 138.594 35.1875C140.082 38.0823 141.718 40.9418 143.656 43.5625C144.158 44.2404 144.598 44.9914 145.219 45.5625C145.751 46.0526 146.438 46.3222 147.062 46.6875C147.78 47.107 148.543 47.4625 149.281 47.8438C151.499 48.9882 153.731 50.0943 156.031 51.0625C161.102 53.1964 166.452 54.4239 171.625 56.25C175.564 57.6404 179.315 59.4475 183.031 61.3438C179.355 59.3718 175.732 57.2873 172.344 54.8438C168.578 52.1278 165.125 49.0195 161.281 46.4062C158.869 44.7659 156.377 43.2646 153.812 41.875C152.738 41.293 151.635 40.6102 150.5 40.1562C150.389 40.112 150.215 40.2029 150.125 40.125C149.785 39.8315 149.578 39.4308 149.281 39.0938C148.854 38.6077 148.411 38.1292 147.969 37.6562C146.635 36.2287 145.246 34.856 143.781 33.5625C141.804 31.8168 139.683 30.1926 137.688 28.4688C134.271 25.5175 131.012 22.229 128.5 18.4688C128.435 18.3878 128.331 18.373 128.25 18.4375Z" fill="#150b14" stroke="none"/>
</g>
<g filter="url(#Filter_15)" opacity="0.993109" vectornator:blur="1.70559" vectornator:layerName="Curve 18">
<path d="M51.3438 156.156C50.7352 156.185 50.1448 156.415 49.5625 156.594C48.0452 157.061 46.6044 157.799 45.125 158.375C42.5492 159.377 39.8861 160.157 37.1875 160.75C35.6425 161.09 34.146 161.405 32.5625 161.438C32.4602 161.453 32.3903 161.554 32.4062 161.656C32.4222 161.759 32.5227 161.828 32.625 161.812C34.5069 161.255 36.4528 161.084 38.4062 160.938C41.1751 160.73 43.9205 160.79 46.6875 161C47.8829 161.091 49.0885 161.134 50.2812 161.25C50.4629 161.268 50.6819 161.259 50.8438 161.344C51.1203 161.488 51.2956 161.745 51.5625 161.906C51.9709 162.154 52.4141 162.354 52.8438 162.562C57.0824 164.618 61.6326 166.08 66.1875 167.25C68.9501 167.96 71.7584 168.467 74.5938 168.781C77.463 169.099 80.3612 169.264 83.2188 169.688C86.9732 170.243 90.6219 171.219 94.25 172.312C90.6485 171.134 87.0849 169.848 83.6875 168.156C80.2457 166.442 77.0265 164.298 73.5625 162.625C69.7353 160.777 65.7066 159.359 61.625 158.188C58.8848 157.401 56.1356 156.802 53.3125 156.406C52.6592 156.315 52.0027 156.125 51.3438 156.156Z" fill="#150b14" stroke="none"/>
</g>
</g>
</svg>
